<?xml version="1.0" encoding="utf-8"?>
<svg width="1000" height="1000" viewBox="0 0 1000 1000" fill="none" xmlns="http://www.w3.org/2000/svg">
  <defs>
    <clipPath id="clip_path_1">
      <rect width="1000" height="1000" rx="10000" />
    </clipPath>
  </defs>
  <g clip-path="url(#clip_path_1)">
    <rect width="1000" height="1000" fill="#FFFFFF" fill-rule="evenodd" />
    <path d="M7.62939e-06 800.001C7.62939e-06 800.001 0.000244141 1.52588e-05 0.000244141 1.52588e-05C105.058 4.57764e-05 209.087 20.6926 306.147 60.8965C403.208 101.1 491.399 160.028 565.686 234.315C639.973 308.602 698.901 396.793 739.105 493.854C779.309 590.915 800.001 694.944 800.001 800.001C800.001 800.001 7.62939e-06 800.001 7.62939e-06 800.001Z" fill="#FD7E14" fill-rule="evenodd" transform="matrix(0.993 0.122 -0.122 0.993 28.729 173)" />
    <path d="M800.001 0.000289917C800.001 0.000289917 800.001 800.002 800.001 800.002C694.943 800.002 590.915 779.309 493.854 739.105C396.793 698.901 308.602 639.974 234.315 565.687C160.028 491.399 101.1 403.208 60.8963 306.147C20.6926 209.087 0 105.058 0 0C0 0 800.001 0.000289917 800.001 0.000289917Z" fill="#E03131" fill-rule="evenodd" transform="matrix(0.946 -0.326 0.326 0.946 300 -74)" />
  </g>
</svg>